<?xml version="1.0" encoding="UTF-8" standalone="no" ?>
<!DOCTYPE svg PUBLIC "-//W3C//DTD SVG 1.1//EN" "http://www.w3.org/Graphics/SVG/1.1/DTD/svg11.dtd">
<svg xmlns="http://www.w3.org/2000/svg" xmlns:xlink="http://www.w3.org/1999/xlink" version="1.1" width="260" height="101" viewBox="123 200 260 101" xml:space="preserve">
<desc>Created with Fabric.js 4.6.0</desc>
<defs>
</defs>
<g transform="matrix(1.02 0 0 1.02 252.96 251.07)" id="hcU60JFCI008T7mPcAKry"  >
<path style="stroke: none; stroke-width: 1; stroke-dasharray: none; stroke-linecap: butt; stroke-dashoffset: 0; stroke-linejoin: miter; stroke-miterlimit: 4; fill: rgb(80,80,80); fill-rule: nonzero; opacity: 1;" vector-effect="non-scaling-stroke"  transform=" translate(-121.34, -46.39)" d="M 137.197 3.257 C 130.27 4.866 126.83 8.516 126.796 14.293 C 126.757 21.02 130.525 24.109 142.608 27.259 C 148.481 28.789 150.477 31.441000000000003 147.699 34.017 C 144.54600000000002 36.939 138.376 35.044000000000004 137.59900000000002 30.912000000000003 C 137.21400000000003 28.85 137.233 28.856 130.76200000000003 29.216 L 125.02700000000003 29.534000000000002 L 125.30300000000003 31.340000000000003 C 125.72800000000002 34.124 128.02500000000003 38.422000000000004 129.98300000000003 40.098 C 135.78500000000003 45.062 151.76300000000003 44.553 157.23300000000003 39.226 L 158.83300000000003 37.668 L 159.14000000000001 39.479 C 160.26500000000001 46.141999999999996 167.032 52.402 174.817 53.983 L 177.317 54.492 L 175.84 56.427 C 170.966 62.811 170.828 75.867 175.564 82.648 C 182.81199999999998 93.023 203.208 92.722 209.91899999999998 82.142 L 211.16799999999998 80.173 L 211.16799999999998 89.56400000000001 L 242.77799999999996 89.56400000000001 L 242.77799999999996 79.46700000000001 L 223.89999999999998 79.46700000000001 L 223.89999999999998 50.051000000000016 L 211.16799999999998 50.051000000000016 L 211.14299999999997 54.551000000000016 C 211.12099999999998 58.22700000000002 211.02199999999996 58.89400000000002 210.59499999999997 58.19300000000002 C 208.17599999999996 54.22500000000002 203.46499999999997 50.92800000000002 198.84699999999998 49.97500000000002 L 196.35799999999998 49.46000000000002 L 198.884 47.56200000000002 C 206.742 41.65600000000002 211.636 30.881000000000018 210.379 22.25500000000002 C 207.07399999999998 -0.41399999999998016 174.421 -0.7649999999999793 161.98399999999998 21.73200000000002 C 161.182 23.18000000000002 160.49899999999997 24.41200000000002 160.46499999999997 24.469000000000023 C 160.43099999999998 24.526000000000025 159.31199999999998 23.513000000000023 157.97599999999997 22.222000000000023 C 155.20599999999996 19.539000000000023 152.98099999999997 18.557000000000023 145.41799999999998 16.684000000000022 C 138.38099999999997 14.940000000000023 136.94099999999997 13.717000000000022 139.30599999999998 11.492000000000022 C 141.55599999999998 9.377000000000022 146.45499999999998 10.747000000000023 147.558 13.801000000000023 C 148.20499999999998 15.590000000000023 148.087 15.573000000000023 155.56799999999998 15.078000000000022 L 159.89399999999998 14.791000000000022 L 159.61799999999997 13.067000000000021 C 158.34099999999998 5.080000000000021 148.28899999999996 0.6810000000000223 137.19399999999996 3.260000000000021 z M 2.635 23.268 L 2.635 43.022999999999996 L 15.366999999999999 43.022999999999996 L 15.366999999999999 27.217 L 16.660999999999998 27.217 C 18.702999999999996 27.217 19.938 28.718999999999998 23.875 35.998 L 27.557 42.800999999999995 L 34.635999999999996 42.922 C 38.528999999999996 42.989 41.711999999999996 42.925 41.711999999999996 42.781 C 41.711999999999996 40.556 33.778 27.717 31.575999999999997 26.378999999999998 L 30.368999999999996 25.644999999999996 L 32.80499999999999 24.370999999999995 C 41.83599999999999 19.642999999999994 40.12599999999999 6.097999999999995 30.228999999999992 3.9749999999999943 C 28.979999999999993 3.7079999999999944 22.654999999999994 3.5079999999999942 15.344999999999992 3.5079999999999942 L 2.634999999999991 3.5079999999999942 L 2.634999999999991 23.262999999999995 z M 195.401 6.952 C 215.27100000000002 12.138 213.452 40.016 192.577 50.193999999999996 C 171.309 60.56399999999999 152.355 43.53999999999999 162.464 23.148999999999994 C 168.362 11.251999999999994 183.448 3.832999999999995 195.398 6.954999999999995 z M 24.14 12.417 C 28.612000000000002 14.678 25.645 18.852 19.311 19.212 L 15.368 19.437 L 15.368 11.852 L 19.21 11.858 C 21.409 11.861 23.516000000000002 12.100000000000001 24.14 12.415000000000001 z M 188.373 15.91 C 184.87699999999998 16.838 181.322 20.371000000000002 181.319 22.919 C 181.313 27.082 184.641 28.583 189.87699999999998 26.781 C 193.07999999999998 25.679 193.896 25.679 194.48899999999998 26.784 C 195.49299999999997 28.663 192.20199999999997 30.578 190.28199999999998 29.230999999999998 C 189.31699999999998 28.555999999999997 185.759 30.685 185.72299999999998 31.959 C 185.66699999999997 33.877 190.521 34.603 193.49399999999997 33.121 C 202.93599999999998 28.416000000000004 200.25499999999997 18.316000000000003 190.46199999999996 21.694000000000003 C 186.54699999999997 23.044000000000004 185.70599999999996 23.103 185.70599999999996 22.017000000000003 C 185.70599999999996 20.313000000000002 188.36899999999997 19.081000000000003 189.53099999999995 20.242000000000004 C 190.00599999999994 20.717000000000006 193.60599999999994 18.330000000000005 193.60599999999994 17.539000000000005 C 193.60599999999994 16.358000000000004 190.41699999999994 15.362000000000005 188.36899999999994 15.908000000000005 z M 174.201 25.383 C 172.106 26.899 172.007 26.505 175.849 31.959 C 178.214 35.314 179.123 36.971 179.033 37.756 C 178.87599999999998 39.098 177.37099999999998 39.455 176.313 38.4 C 175.641 37.728 175.46599999999998 37.781 173.875 39.144999999999996 C 169.856 42.587999999999994 175.965 45.54299999999999 180.504 42.354 C 185.49099999999999 38.85 185.499 36.676 180.541 29.436 C 176.696 23.819 176.519 23.707 174.19899999999998 25.386 z M 13.044 49.621 C 5.861000000000001 50.754000000000005 1.6560000000000006 54.954 1.5999999999999996 61.051 C 1.5439999999999996 67.272 5.577 70.816 15.567 73.316 C 21.69 74.849 23.706 76.019 23.706 78.035 C 23.706 83.713 13.542 83.145 12.466999999999999 77.408 C 12.089999999999998 75.406 12.137999999999998 75.417 5.6549999999999985 75.768 L -0.0940000000000012 76.08 L 0.19299999999999878 77.88 C 1.5039999999999987 86.13199999999999 6.301999999999999 89.566 16.991999999999997 89.901 C 25.468999999999998 90.16499999999999 28.382999999999996 89.344 32.083999999999996 85.643 L 34.617999999999995 83.109 L 35.54899999999999 84.366 C 40.934999999999995 91.65 59.12899999999999 92.14 65.103 85.159 C 66.85 83.12 68.80999999999999 79.278 69.00999999999999 77.509 C 69.151 76.263 69.11099999999999 76.241 63.78699999999999 74.626 L 58.42399999999999 72.998 L 57.70399999999999 75.164 C 55.25099999999999 82.547 45.989999999999995 82.631 43.955999999999996 75.291 C 43.263999999999996 72.79599999999999 43.348 66.83699999999999 44.11299999999999 64.26899999999999 C 45.95799999999999 58.06199999999999 53.75099999999999 56.78799999999999 56.913 62.17899999999999 C 58.232 64.42899999999999 57.878 64.38699999999999 63.863 63.033999999999985 C 69.561 61.74599999999999 69.316 61.97399999999998 68.017 59.17499999999998 C 62.864 48.08799999999998 45.541999999999994 45.48699999999998 36.357 54.41599999999998 L 33.795 56.90799999999998 L 32.732 55.09399999999998 C 30.083 50.570999999999984 21.726999999999997 48.247999999999976 13.05 49.62099999999998 z M 134.342 49.632 C 129.479 50.476 124.67500000000001 53.536 121.96100000000001 57.515 C 121.23500000000001 58.581 121.21600000000001 58.494 121.19300000000001 54.328 L 121.17000000000002 50.047000000000004 L 108.43800000000002 50.047000000000004 L 108.43800000000002 63.657000000000004 L 95.70600000000002 63.657000000000004 L 95.70600000000002 50.047000000000004 L 82.97400000000002 50.047000000000004 L 82.97400000000002 89.56 L 95.70600000000002 89.56 L 95.70600000000002 73.754 L 108.43800000000002 73.754 L 108.43800000000002 89.56 L 121.17000000000002 89.56 L 121.17000000000002 80.62700000000001 L 122.54500000000002 82.7 C 128.26600000000002 91.334 145.959 92.85000000000001 154.01100000000002 85.394 C 163.32900000000004 76.768 161.50100000000003 57.14500000000001 150.87500000000003 51.723000000000006 C 146.77400000000003 49.63000000000001 139.57700000000003 48.71900000000001 134.34000000000003 49.62800000000001 z M 20.183 57.727 C 20.917 58.107 21.778 59.135999999999996 22.245 60.193999999999996 L 23.047 62.010999999999996 L 31.625 61.598 L 31.344 63.836999999999996 C 30.973000000000003 66.79899999999999 30.807000000000002 66.911 28.346 65.823 C 27.187 65.31099999999999 23.944 64.318 21.134999999999998 63.611999999999995 C 14.488999999999997 61.946999999999996 13.661999999999999 61.589999999999996 13.322 60.236999999999995 C 12.691999999999998 57.733999999999995 17.088 56.12499999999999 20.186999999999998 57.727999999999994 z M 141.871 59.279 C 148.37300000000002 61.085 149.69 76.00800000000001 143.66 79.557 C 139.15699999999998 82.206 133.459 79.95100000000001 132.123 74.987 C 129.468 65.124 134.387 57.20099999999999 141.87099999999998 59.278999999999996 z M 194.951 59.268 C 202.505 61.366 202.351 78.342 194.76 80.387 C 188.65699999999998 82.029 184.596 77.788 184.62699999999998 69.806 C 184.66099999999997 61.512 188.58999999999997 57.501 194.95199999999997 59.269999999999996 z" stroke-linecap="round" />
</g>
</svg>